<svg width="73" height="79" viewBox="0 0 73 79" fill="none" xmlns="http://www.w3.org/2000/svg">
<g clip-path="url(#clip0_408_1149)">
<path fill-rule="evenodd" clip-rule="evenodd" d="M36.0124 78.4409C35.5022 78.3208 34.9955 78.163 34.499 77.9709C34.1635 77.8577 33.7869 77.6964 33.3897 77.5215C33.2493 77.4631 33.1089 77.3979 32.9583 77.3362C31.2087 76.6089 29.5001 75.7443 27.8841 74.7631C26.8364 74.0941 25.8297 73.3599 24.8882 72.5674C22.4777 70.5913 20.3686 68.2756 18.619 65.6819C16.9516 63.1775 15.5923 60.4775 14.5754 57.6539C13.6852 55.1426 13.2058 52.5181 13.1442 49.8593C12.9217 41.1211 12.6306 23.3601 12.6306 23.1817L12.6238 22.8215L13.1065 22.6362C15.4964 21.679 17.9787 20.8694 20.4782 20.2381C23.9329 19.4045 27.4698 18.8315 31.0032 18.5399C32.8898 18.3718 34.547 18.3306 36.0569 18.3135H36.211C37.6353 18.3306 39.3473 18.3718 41.2749 18.5399C44.8049 18.8315 48.3452 19.401 51.7931 20.2381C54.2891 20.8694 56.7714 21.679 59.175 22.6397L59.6441 22.8558L59.6372 23.1886C59.6372 23.367 59.3428 41.1211 59.1236 49.8593C59.0654 52.5181 58.5827 55.1426 57.6925 57.6505C56.6721 60.4843 55.3129 63.1843 53.6489 65.6785C51.8992 68.2721 49.7901 70.5879 47.3729 72.5674C46.4347 73.3565 45.4281 74.0907 44.3906 74.7528C42.7643 75.7375 41.0558 76.6054 39.3027 77.3328L38.9295 77.494C38.5118 77.6758 38.1147 77.8474 37.7483 77.9709C37.2758 78.1527 36.7691 78.3105 36.2521 78.434L36.1322 78.4615L36.0124 78.434V78.4409Z" fill="white"/>
<path d="M36.2077 18.828C37.9436 18.8486 39.5015 18.9001 41.2271 19.0545C44.7469 19.3461 48.2359 19.9087 51.67 20.739C54.1592 21.3702 56.6004 22.1662 58.9834 23.1199L59.1238 23.1851C59.1238 23.1851 58.8328 41.0147 58.6102 49.8524C58.552 52.4563 58.0795 55.0294 57.2099 57.4824C56.2032 60.2716 54.8679 62.9304 53.221 65.3971C51.5022 67.9427 49.4239 70.2276 47.0478 72.1763C46.1165 72.9585 45.1372 73.6755 44.1135 74.3274C42.5111 75.2983 40.8368 76.1457 39.1043 76.8661C38.5325 77.1097 38.0292 77.3396 37.5773 77.4939C37.1048 77.6758 36.622 77.8267 36.129 77.9434C35.6359 77.8267 35.1532 77.6758 34.6807 77.4939C34.2253 77.3396 33.7288 77.1097 33.1536 76.8661C31.4245 76.1457 29.7468 75.2983 28.1445 74.3274C27.1207 73.6755 26.1415 72.9585 25.2102 72.1763C22.834 70.2276 20.7557 67.9462 19.0369 65.3971C17.3934 62.9304 16.0547 60.2716 15.0515 57.4824C14.1818 55.0294 13.7093 52.4529 13.6511 49.8524C13.4286 41.0147 13.1375 23.1782 13.1375 23.1782L13.2848 23.1233C15.6678 22.1696 18.109 21.3737 20.5982 20.7424C24.0324 19.9122 27.5213 19.3495 31.0411 19.0579C32.7667 18.9035 34.3246 18.8521 36.0605 18.8315H36.2077M36.2146 17.8022H36.0605C34.5266 17.8228 32.8557 17.8606 30.952 18.0321C27.398 18.3272 23.8338 18.9001 20.3585 19.7406C17.8248 20.3822 15.322 21.1987 12.9047 22.1662L12.7712 22.2176L12.1001 22.4749L12.1104 23.1954C12.1104 23.3738 12.4048 41.1382 12.624 49.8798C12.6856 52.5935 13.1752 55.2695 14.0825 57.8289C15.1165 60.697 16.493 63.4347 18.1844 65.97C19.9648 68.6083 22.1081 70.9618 24.5631 72.9722C25.5149 73.7716 26.5386 74.5195 27.5966 75.1953L27.6069 75.2022L27.6172 75.2091C29.2572 76.2006 30.9863 77.0788 32.7633 77.8164C32.9071 77.8782 33.0475 77.9399 33.1878 77.9983C33.5884 78.1698 33.9651 78.3345 34.3349 78.4614C34.845 78.657 35.3689 78.8182 35.8927 78.9452L36.129 79.0001L36.3652 78.9452C36.8959 78.8182 37.4198 78.657 37.9265 78.4614C38.3066 78.3311 38.7037 78.1595 39.1249 77.9777C39.2481 77.9262 39.3714 77.8713 39.5015 77.8164C41.2682 77.0823 43.0007 76.204 44.6408 75.2125L44.651 75.2056L44.6613 75.1988C45.7193 74.5263 46.743 73.775 47.7052 72.9688C50.1498 70.9652 52.2932 68.6117 54.0702 65.9769C55.7581 63.4416 57.138 60.7038 58.172 57.8357C59.0827 55.2695 59.5724 52.5935 59.634 49.8764C59.8565 41.1382 60.1476 23.3807 60.1476 23.2023L60.1578 22.5333L59.5518 22.2519L59.4114 22.1868L59.3875 22.1765L59.3635 22.1662C56.9394 21.1953 54.4365 20.3822 51.92 19.7441C48.4344 18.9001 44.8702 18.3237 41.3093 18.0321C39.3714 17.8606 37.6492 17.8194 36.218 17.8022H36.2111H36.2146Z" fill="black"/>
<path d="M18.4239 30.798C18.0199 31.1513 17.7323 31.6145 17.5954 32.1325C17.5029 32.7329 17.5132 33.3436 17.6296 33.9371C17.6296 33.9371 16.8935 34.2836 16.6435 34.4243C16.5887 34.2253 16.4929 34.04 16.3628 33.8788C16.1333 33.6867 15.8115 33.6524 15.5444 33.7896C15.315 33.8959 15.1815 34.1395 15.2089 34.39C15.2363 34.5821 15.3116 34.7605 15.4349 34.9114C15.2329 34.9766 15.048 35.0898 14.9007 35.2408C14.7124 35.4364 14.6371 35.7142 14.7022 35.9784C14.7946 36.2117 15.0377 36.3524 15.2842 36.3146C15.589 36.2494 15.8731 36.0985 16.1025 35.8858C16.2053 36.0093 16.3182 36.1259 16.4347 36.2357C16.5545 36.3283 16.7051 36.3764 16.8592 36.3764C16.9791 36.3764 17.0989 36.3455 17.2085 36.294C17.4242 36.1705 17.5474 35.9338 17.52 35.6868C17.4858 35.3403 17.1571 35.2031 17.1742 35.0761C18.8348 34.1464 20.6152 33.4499 22.4676 33.0142C23.7207 32.6849 25.0012 32.4825 26.2955 32.407C27.1172 32.3178 27.9492 32.407 28.7367 32.6574C29.3872 32.8255 29.9796 33.1583 30.4658 33.6215L30.4795 33.6318C30.4658 33.028 30.1199 32.4825 29.5824 32.2149C29.1476 31.9438 28.6545 31.7792 28.1478 31.7346C28.2676 31.5287 28.4149 31.3366 28.5826 31.1651C28.8565 30.894 29.2058 30.7122 29.5858 30.6402C29.9179 30.5956 30.2535 30.575 30.5924 30.5818C30.476 30.3074 30.209 30.1221 29.9077 30.1153C29.5208 30.0535 29.1236 30.0878 28.7538 30.2216C28.093 30.5098 27.5726 31.045 27.3021 31.714C26.6207 31.6762 25.9394 31.6797 25.258 31.7243C25.3265 31.1719 25.5319 30.647 25.8504 30.1907C26.2167 29.7585 26.7029 29.4463 27.2507 29.2919C27.3329 29.2679 27.4116 29.2267 27.4836 29.1787C27.3671 29.0654 27.2131 28.9522 26.6379 28.9316C25.8949 28.9419 25.2067 29.3227 24.7992 29.9437C24.4637 30.4892 24.2651 31.1067 24.2206 31.7449C23.1318 31.9404 21.8752 32.2629 21.8752 32.2629C21.8889 31.8169 21.9848 31.3778 22.1526 30.9661C22.4093 30.448 22.8099 30.0158 23.303 29.7173L23.5358 29.5595C23.3886 29.4977 23.2242 29.4703 23.0633 29.4874C22.7004 29.5011 22.3409 29.5972 22.0224 29.7687C21.3514 30.1461 20.9336 30.8563 20.9336 31.6282C20.9165 31.7963 20.9645 32.4516 20.9336 32.6128C20.0914 32.829 19.2662 33.0897 18.4513 33.3951C18.3726 32.8324 18.4513 32.256 18.6876 31.738C18.9101 31.2543 19.2662 30.8426 19.7113 30.551C19.927 30.4137 19.9339 30.3588 19.9304 30.3451C19.927 30.3314 19.8928 30.3074 19.6018 30.3039C19.1703 30.3417 18.7629 30.5132 18.4342 30.798H18.4239Z" fill="black"/>
<path d="M25.0527 37.8103C25.4019 37.848 25.5868 37.9475 25.8847 38.1705C25.9737 38.2632 26.2065 38.3455 26.2134 38.8395L26.2065 38.8292C25.8744 38.4484 25.4019 38.397 25.3369 38.3764C24.9397 38.2563 24.3508 38.2906 23.7858 38.3627C22.8991 38.4244 22.0191 38.5891 21.1563 38.8601C19.886 39.2169 18.6637 39.7864 17.5235 40.548C17.5099 40.651 17.7358 40.7642 17.7598 41.0455C17.7769 41.2479 17.6913 41.4435 17.5441 41.543C17.4688 41.5876 17.39 41.6116 17.3044 41.6116C17.1983 41.6116 17.099 41.5704 17.0134 41.4949C16.9312 41.4057 16.8559 41.3097 16.784 41.2102C16.6265 41.3851 16.4347 41.5087 16.2225 41.5635C16.0513 41.5944 15.8869 41.4812 15.8219 41.2891C15.7774 41.0729 15.8287 40.8465 15.9588 40.6853C16.0615 40.5618 16.1882 40.4691 16.3252 40.4177C16.243 40.2942 16.1882 40.1466 16.1711 39.9923C16.1506 39.7864 16.243 39.5874 16.4005 39.5017C16.582 39.3884 16.8045 39.4159 16.962 39.5737C17.0511 39.7041 17.1161 39.8585 17.1572 40.0197C17.3284 39.9065 17.8351 39.6217 17.8351 39.6217C17.7564 39.1346 17.7461 38.6337 17.8112 38.1431C17.9036 37.7177 18.1022 37.3369 18.3795 37.0487C18.6055 36.8154 18.8863 36.6747 19.1807 36.6438C19.3793 36.6438 19.4033 36.6644 19.4067 36.6747C19.4067 36.685 19.4067 36.733 19.256 36.8428C18.9513 37.083 18.7082 37.4158 18.5541 37.8137C18.3932 38.2391 18.3384 38.7092 18.3932 39.1723C18.9513 38.9219 19.5197 38.7092 20.0983 38.5308C20.1189 38.4004 20.088 37.8652 20.0983 37.728C20.0983 37.0967 20.3859 36.5169 20.8481 36.2081C21.0673 36.0675 21.3138 35.9886 21.5637 35.9783C21.6733 35.9646 21.7863 35.9851 21.889 36.0366L21.7281 36.167C21.3891 36.4106 21.1152 36.7674 20.9372 37.1893C20.8208 37.5255 20.7557 37.8858 20.7454 38.2494C20.7454 38.2494 21.6083 37.9853 22.3547 37.824C22.3855 37.3025 22.5224 36.7948 22.7518 36.3488C23.0326 35.841 23.5051 35.5288 24.0118 35.5186C24.4056 35.5357 24.5117 35.6283 24.5939 35.721C24.5459 35.7621 24.4912 35.793 24.433 35.8136C24.0598 35.9405 23.7242 36.1944 23.4708 36.5478C23.2517 36.9183 23.1113 37.3506 23.0634 37.8C23.5291 37.7657 23.9981 37.7623 24.4672 37.7931C24.6521 37.2477 25.0116 36.8085 25.4636 36.5718C25.7169 36.4654 25.8059 36.4757 25.9429 36.486C26.0799 36.4963 26.3332 36.6404 26.412 36.8668C26.412 36.8668 26.0456 36.6644 25.7375 36.9149C25.4293 37.1653 25.128 37.6388 25.0458 37.8103H25.0527Z" fill="black"/>
<path d="M25.5389 43.5192C25.1075 43.4266 23.755 43.5467 23.755 43.5467V43.4987C23.7482 43.1041 23.8406 42.7164 24.0221 42.3665C24.3987 41.7936 24.8644 41.2858 25.4019 40.857L25.4773 40.8055L25.58 40.6854C25.4533 40.6477 25.3198 40.6305 25.1862 40.634C24.546 40.7266 23.9707 41.0765 23.5941 41.6049C23.1216 42.2224 22.8922 42.9943 22.947 43.7697C22.7895 43.8177 21.4884 44.2466 21.259 44.3015C20.9235 43.1624 21.3686 41.9308 22.3547 41.2687C21.574 41.2652 20.8516 41.7009 20.4921 42.3974C20.2524 43.135 20.2764 43.9309 20.5571 44.6548C20.1428 44.7783 19.013 45.2278 19.013 45.2278C18.8041 44.8161 18.7288 44.3495 18.7904 43.8932C18.8041 43.2859 19.0438 42.7027 19.4683 42.2636C18.9479 42.0131 17.8968 42.713 17.7427 43.7457C17.7187 44.4215 17.8865 45.0871 18.222 45.6738C17.9344 45.8796 17.4448 46.2089 17.2805 46.3187C17.2325 46.2673 17.0785 45.7252 16.7874 45.5502C16.5614 45.3856 16.2533 45.3753 16.0205 45.5297C15.7774 45.7286 15.6849 46.058 15.7842 46.353L16.178 46.9431C16.0479 47.0529 15.9041 47.1455 15.75 47.221C15.5411 47.3239 15.3905 47.5161 15.3391 47.7391C15.3049 47.9209 15.3494 48.1096 15.4658 48.2537C15.5925 48.4115 15.7842 48.4973 15.9828 48.4938C16.13 48.4938 16.2773 48.4492 16.4039 48.3772C16.5546 48.2914 16.9894 47.8763 17.0374 47.8489C17.1983 48.0238 17.3318 48.4801 17.8488 48.463C18.424 48.4458 18.7048 48.0375 18.5781 47.6018C18.4583 47.3171 18.246 47.0838 17.9755 46.9397C18.7425 46.4697 19.5402 46.0511 20.362 45.6909C22.1869 44.8675 25.7614 43.9824 26.2887 43.9447C26.2887 43.9447 25.9771 43.6153 25.5457 43.5227L25.5389 43.5192Z" fill="black"/>
<path d="M50.1635 59.5167C49.8553 59.5373 49.5609 59.6677 49.3383 59.8838C49.1055 60.0691 48.9103 60.2921 48.7529 60.5459C48.7289 60.5871 48.6501 60.7243 48.5474 60.7037C48.2016 60.6386 47.8524 60.5974 47.4997 60.5734C47.4997 60.5734 47.2943 60.5219 47.3354 60.3367C47.3696 60.0039 47.4963 59.6848 47.7051 59.4241C47.9756 59.0913 48.3249 58.8271 48.7186 58.6556C48.8624 58.5835 48.2187 58.3914 47.9791 58.4051C47.6469 58.4189 47.3319 58.5424 47.0786 58.7551C46.5547 59.105 46.3869 60.0416 46.2329 60.5391C46.2157 60.6077 46.1678 60.666 46.0993 60.69C45.6816 60.8032 45.2468 60.8581 44.8154 60.8581C44.7366 60.3229 44.8256 59.774 45.0722 59.2937C45.2776 58.9609 45.5378 58.6693 45.8391 58.4257C45.9453 58.3365 46.0617 58.2508 46.1781 58.1787C46.2671 58.1204 45.9761 58.0278 45.7775 58.0483C45.2297 58.1101 44.7298 58.3914 44.3977 58.8306C43.9731 59.4824 43.754 60.2509 43.7711 61.0297C43.7711 61.0571 43.8088 61.1257 43.6821 61.16C43.4629 61.2184 43.1377 61.2595 42.898 61.3522C42.7097 61.4242 42.405 61.582 42.3296 61.5409C42.2543 61.4963 42.2406 61.3453 42.2235 61.2218C42.1721 60.9405 42.1687 60.6557 42.2166 60.3744C42.3091 59.8735 42.5351 59.4069 42.8706 59.0227C42.9665 58.9403 42.0112 58.8649 41.5079 59.726C41.2853 60.0622 41.1518 60.4499 41.121 60.8547C41.121 61.2184 41.1758 61.5786 41.2853 61.9251C41.3127 62.0246 41.2408 62.0486 41.2408 62.0486L41.0662 62.1447C40.7409 62.3265 40.2616 62.5461 39.9911 62.6833L39.95 62.6627C39.837 62.3334 39.8233 62.1138 39.5083 61.8908C39.2447 61.733 38.9263 61.7055 38.6387 61.8153C38.3785 61.9285 38.2107 62.1858 38.2141 62.4706C38.2415 62.7622 38.3853 63.0298 38.6181 63.2082L38.3853 63.4072C38.1217 63.6302 38.0737 64.0247 38.2792 64.3026C38.4059 64.505 38.6318 64.6285 38.8681 64.6285C39.0256 64.6285 39.1762 64.5736 39.3029 64.4776C39.4536 64.3952 39.57 64.2614 39.6316 64.1036C39.6932 64.2546 39.8165 64.7349 40.289 64.8001C40.4807 64.8653 40.6964 64.8309 40.8574 64.7074C41.1278 64.505 41.2203 64.1379 41.0799 63.8292C41.0149 63.6473 40.895 63.4929 40.7409 63.3832C41.7133 62.7965 42.7542 62.3334 43.843 62.004C44.8188 61.7124 45.8288 61.558 46.8457 61.5511C47.6812 61.5271 48.5063 61.7158 49.2493 62.0966C49.7903 62.45 50.2765 62.8788 50.6873 63.3763C50.7798 63.3351 50.7387 63.071 50.7387 63.0092C50.6291 62.2579 50.2457 61.5752 49.6568 61.0914C49.5609 61.0057 49.6191 60.9713 49.6396 60.9473C49.9923 60.491 50.4853 60.1651 51.04 60.021C51.1325 59.9901 50.8106 59.5167 50.1601 59.5167H50.1635Z" fill="black"/>
<path d="M47.6913 66.536C47.5064 66.3987 47.277 66.3301 47.0476 66.337C46.6744 66.3473 46.3149 66.4914 46.0375 66.7384C45.7431 67.0197 45.5 67.3456 45.3151 67.7093L45.2603 67.7264C44.935 67.6166 44.5995 67.5343 44.2605 67.4863L44.24 67.4177C44.2845 67.078 44.4249 66.759 44.6509 66.5016C44.8905 66.21 45.1884 65.9699 45.524 65.8018C45.8013 65.6851 45.9691 65.7572 45.9245 65.7057C45.8595 65.6268 45.7807 65.421 45.1953 65.445C44.7433 65.4896 44.3153 65.668 43.9661 65.9596C43.5039 66.385 43.1854 66.9442 43.0622 67.5618L42.9971 67.6269C42.6582 67.699 42.3397 67.7813 42.011 67.8705L41.9528 67.8431C41.857 67.4142 41.8878 66.9648 42.0384 66.5531C42.2199 66.1449 42.5075 65.7949 42.867 65.5342C42.8465 65.4141 42.5246 65.4038 42.5041 65.4038C41.9734 65.4896 41.5111 65.8121 41.2544 66.2821C40.9154 66.8825 40.8366 67.5926 41.0318 68.2548L41.0078 68.3028C40.7134 68.4229 40.4258 68.5601 40.1484 68.7145L40.056 68.6905C39.8814 68.3886 39.7752 68.0489 39.7444 67.699C39.6862 67.3456 39.7958 66.9854 40.0389 66.7247C39.5356 66.7624 39.111 67.1329 39.0117 67.6304C38.9467 68.0283 38.9946 68.4332 39.1452 68.8071C39.2069 68.9855 39.2822 69.1571 39.3712 69.3217L39.3575 69.3766C39.3199 69.4041 38.7686 69.826 38.6659 69.9152L38.5906 69.9221L38.3098 69.5413C38.1866 69.3698 37.9914 69.2668 37.7791 69.2668C37.6422 69.2668 37.5052 69.3114 37.3956 69.3903C37.2621 69.5036 37.1833 69.6717 37.1833 69.8501C37.1833 70.0113 37.2484 70.1623 37.3614 70.2755C37.5052 70.399 37.8681 70.6323 37.8989 70.6529C37.7483 70.7661 37.6079 70.8862 37.471 71.0131C37.2724 71.2876 37.3237 71.6752 37.5874 71.8845C37.8339 72.0629 38.1831 72.0183 38.3714 71.7782C38.4981 71.6341 38.6659 71.2224 38.8337 71.1709C39.0733 71.0954 38.9706 71.4008 39.5184 71.7541C39.7205 71.8673 39.9772 71.8296 40.1382 71.6649C40.3265 71.4454 40.3094 70.9616 39.5869 70.6426C39.5253 70.6083 39.3952 70.5671 39.4739 70.4882C39.6486 70.3235 39.8369 70.1691 40.0286 70.025L40.3025 69.8226C40.9257 69.3698 41.6207 69.0233 42.3569 68.8003C42.9047 68.6184 43.4799 68.5224 44.0585 68.5155C44.6817 68.5258 45.298 68.6493 45.88 68.8792C46.2943 69.013 46.6607 69.2703 46.9277 69.6168C47.1298 69.8741 47.2804 69.531 47.2427 69.284C47.2085 69.0644 47.1332 68.7214 46.5066 68.3165C46.3902 68.241 46.3833 68.193 46.4073 68.0867C46.4313 67.9803 46.445 67.8602 46.8421 67.3936C47.1161 67.0814 47.4721 66.855 47.8693 66.7452C47.9241 66.7178 47.6947 66.5394 47.6947 66.5394L47.6913 66.536Z" fill="black"/>
<path d="M54.8268 54.6246C54.7104 54.4633 54.5392 54.3501 54.3509 54.2952C54.0427 54.206 53.7106 54.2335 53.4196 54.3638C53.108 54.5182 52.8238 54.7241 52.5807 54.9711H52.5294C52.2897 54.7995 52.0397 54.6452 51.7727 54.5182V54.4565C51.8959 54.1889 52.0945 53.9659 52.3445 53.8115C52.615 53.6331 52.9197 53.5164 53.2381 53.465C53.4949 53.441 53.6147 53.5439 53.5908 53.489C53.56 53.4067 53.5463 53.2214 53.0601 53.0876C52.68 53.0053 52.2794 53.043 51.9199 53.1939C51.4337 53.4238 51.0297 53.8012 50.7695 54.2746L50.701 54.3124C50.4031 54.2849 50.1224 54.2678 49.8313 54.2575L49.7902 54.2197C49.8211 53.8424 49.9614 53.4821 50.1908 53.1837C50.4442 52.8955 50.7695 52.6828 51.1324 52.5627C51.1461 52.4598 50.8859 52.3671 50.8688 52.3603C50.4134 52.2917 49.9512 52.4392 49.6191 52.7582C49.1876 53.1631 48.9411 53.7257 48.9309 54.3158L48.9 54.3501C48.6296 54.3741 48.3591 54.4119 48.0886 54.4668L48.0201 54.4222C47.955 54.1305 47.955 53.8252 48.0201 53.5302C48.0646 53.2248 48.2461 52.9572 48.5131 52.8063C48.0886 52.7068 47.6503 52.9023 47.4415 53.2831C47.2874 53.5919 47.2223 53.9384 47.2497 54.2815C47.2531 54.4427 47.2737 54.604 47.3045 54.7618L47.2805 54.803C47.2429 54.8167 46.6848 55.0191 46.5752 55.0671L46.5102 55.0534L46.3766 54.6692C46.3218 54.4976 46.1849 54.3604 46.0137 54.3089C45.9007 54.2746 45.7809 54.2746 45.6679 54.3124C45.5275 54.3707 45.4214 54.4908 45.3769 54.6349C45.3358 54.7652 45.3495 54.9093 45.4111 55.0294C45.5001 55.1701 45.7329 55.4514 45.7535 55.4754C45.6028 55.5303 45.4556 55.592 45.3118 55.6607C45.079 55.8322 45.0242 56.165 45.1851 56.4051C45.3426 56.6144 45.6371 56.6659 45.8562 56.5183C46 56.4326 46.2397 56.1375 46.3903 56.1375C46.606 56.1375 46.4451 56.3605 46.8012 56.7894C46.9381 56.9335 47.1573 56.9712 47.3319 56.8751C47.5442 56.7448 47.6503 56.3434 47.1402 55.8939C47.0991 55.8528 47.0032 55.7807 47.0854 55.7396C47.2703 55.6504 47.462 55.5715 47.6572 55.5028L47.9345 55.4068C48.5611 55.1941 49.2185 55.0912 49.8793 55.098C50.3757 55.0912 50.8688 55.1563 51.3447 55.3004C51.8514 55.4685 52.3274 55.7293 52.7451 56.0655C53.0498 56.2816 53.2826 56.587 53.4127 56.9403C53.512 57.2011 53.7243 56.9609 53.7551 56.7482C53.7859 56.5595 53.8099 56.261 53.399 55.767C53.3237 55.6744 53.3271 55.6332 53.3751 55.5509C53.423 55.4685 53.4641 55.3759 53.9092 55.0946C54.2105 54.9093 54.5632 54.8167 54.9158 54.827C54.9706 54.8201 54.8268 54.6108 54.8268 54.6108V54.6246Z" fill="black"/>
<path d="M27.8978 50.3705V50.1475H13.425C13.5004 51.9692 13.7811 54.8064 14.2673 56.5664H14.9555H30.9862C29.6851 55.1598 27.9252 52.2883 27.9013 50.3705H27.8978Z" fill="black"/>
<path d="M18.2494 64.7795C18.9205 65.7985 19.999 67.7986 20.8002 68.7215H35.499V62.2957H16.7532C17.2154 63.1293 17.7119 63.9561 18.2494 64.783V64.7795Z" fill="black"/>
<path d="M59.2813 37.625H43.7197V43.5705H59.1991" fill="black"/>
<path d="M59.7333 26.0222C57.4427 25.0959 53.697 25.9913 50.6463 25.7717C47.2601 25.5316 43.9902 26.1354 40.6074 25.8541C39.0016 25.71 37.5465 26.0016 35.9407 25.981V31.9437H59.408L59.4286 30.4993L59.7367 26.0222H59.7333Z" fill="black"/>
<path d="M42.1138 47.4921C42.2199 47.5126 42.3261 47.5058 42.4288 47.4715C42.5384 47.444 42.6376 47.3857 42.7164 47.3034V47.2279L42.4699 47.2313C42.3877 47.2142 42.3124 47.1661 42.2644 47.0975C42.2131 47.0392 42.1754 46.9671 42.1549 46.8917L42.2405 46.7682C42.3637 46.6755 42.4733 46.5623 42.5555 46.4285C42.6205 46.3084 42.6548 46.1746 42.6582 46.0374L42.5931 46.0168L42.3569 46.281C42.2679 46.3427 42.1583 46.3736 42.0487 46.3668C41.9734 46.3599 41.9049 46.3256 41.8536 46.2707L41.7509 46.0614C41.7269 45.9962 41.8262 45.9482 41.8947 45.9345C42.0385 45.9242 42.1754 45.883 42.3021 45.811C42.3843 45.763 42.4459 45.6909 42.487 45.6051L42.5247 45.3959L42.511 45.3547L42.3158 45.4439C42.1925 45.4885 42.059 45.4782 41.9426 45.4199C41.8262 45.3341 41.7303 45.2243 41.6618 45.0974L41.6892 45.0219C41.8056 44.9979 41.9084 44.8675 41.9974 44.7131L42.0453 44.6136L42.1206 44.5004L42.1446 44.2225C42.1343 44.1436 42.0967 44.0716 42.035 44.0167H41.9426L41.8673 44.3323C41.8022 44.4318 41.7235 44.5176 41.6276 44.5862C41.5797 44.6205 41.5146 44.672 41.4598 44.648C41.3674 44.6034 41.3023 44.5176 41.2784 44.4181C41.2647 44.3015 41.2921 44.1814 41.3503 44.0785C41.4598 43.8657 41.5865 43.6599 41.7337 43.4712C41.8433 43.3305 41.9563 43.2413 42.0556 43.087C42.1241 42.984 42.1754 42.7713 42.083 42.737C41.9905 42.7027 41.9392 42.9154 41.857 42.9635C41.542 43.0835 41.2441 43.2448 40.9736 43.4472C40.847 43.6119 40.7579 43.8006 40.71 44.003L40.6518 44.3804C40.6347 44.4215 40.5491 44.4558 40.5183 44.4353C40.4155 44.3392 40.3402 44.2225 40.2991 44.0887C40.2752 43.9961 40.282 43.9035 40.3162 43.8143L40.2752 43.7594C40.1519 43.828 40.0595 43.9412 40.0115 44.075C39.9567 44.2569 39.9739 44.449 40.056 44.6171C40.2067 44.871 40.3745 45.1145 40.5559 45.3444L40.9702 46.0134C41.0901 46.1918 41.138 46.4079 41.1072 46.6172C41.0592 46.8368 40.9462 47.0358 40.7853 47.1901L40.6997 47.2107C40.532 47.0529 40.3539 46.902 40.169 46.7613C39.943 46.6172 39.6965 46.5177 39.4329 46.4663C39.1076 46.432 38.7823 46.4285 38.4571 46.4594C38.1147 46.4697 37.7757 46.5177 37.4333 46.5074C37.156 46.5212 36.8787 46.4834 36.615 46.3976C36.4164 46.3222 36.2521 46.1781 36.1494 45.9928C36.0535 45.7973 36.0193 45.5777 36.0467 45.3616C36.0604 45.1866 36.1117 45.015 36.2007 44.8572C36.2726 44.72 36.3822 44.6068 36.5192 44.5313C36.6732 44.449 36.8513 44.4215 37.019 44.4627C37.1046 44.5004 37.18 44.5485 37.2484 44.6102L37.4402 44.7955L37.495 44.7818C37.5189 44.5519 37.4881 44.3186 37.3991 44.1025C37.3135 43.9378 37.2142 43.7765 37.0978 43.6325L37.2313 43.5981C37.4162 43.5879 37.5977 43.6427 37.7483 43.7525C37.851 43.8246 37.9366 43.9138 38.0017 44.0201L38.0359 44.0064C38.0531 43.7251 37.9572 43.4506 37.7723 43.2413C37.6901 43.1213 37.5771 43.0218 37.447 42.9566C37.3717 42.9292 37.5052 42.8674 37.5703 42.8674C37.7175 42.8537 37.8647 42.8743 38.0017 42.9326L38.1318 43.0286L38.2208 43.0973L38.2619 43.0389C38.2448 42.9566 38.214 42.8777 38.166 42.8091C37.9503 42.5964 37.7175 42.394 37.4744 42.2121L37.3991 42.1538C37.334 42.0577 37.2793 41.9548 37.245 41.845L37.1457 41.7044C37.1286 41.646 37.1355 41.5809 37.1628 41.526C37.2347 41.3922 37.2998 41.3682 37.447 41.303C37.56 41.2652 37.6764 41.2412 37.7963 41.2309L37.9058 41.2549C37.9264 41.2481 37.9366 41.1966 37.8784 41.1554C37.7381 41.056 37.5703 41.0011 37.3991 41.0011C37.1731 40.9633 36.9403 40.9805 36.7212 41.0525C36.5602 41.1417 36.3788 41.1966 36.1939 41.2069C36.074 41.2138 35.9542 41.1898 35.8446 41.1383C35.7659 41.1006 35.7111 41.0285 35.6906 40.9427C35.6837 40.8021 35.718 40.6649 35.7864 40.5413C35.8412 40.4521 35.92 40.3835 36.0158 40.3424C36.0809 40.3081 36.122 40.284 36.1186 40.2394C36.1151 40.1948 36.0227 40.2154 35.9919 40.2257C35.7899 40.2703 35.5947 40.3458 35.4132 40.4521C35.2831 40.5722 35.1633 40.706 35.064 40.8535L34.9784 40.9153L34.8586 40.9393L34.4237 41.1349L34.0266 41.3647C33.9136 41.399 33.7972 41.4196 33.6807 41.4196H33.6705C33.4411 41.399 33.1329 41.399 33.0781 41.6769C33.0644 41.7318 33.0884 41.7936 33.1398 41.821L33.2665 41.8828L33.4103 41.9342L33.4959 41.9857L33.5027 41.996V42.0097L33.5061 42.0372L33.4068 42.1092C33.2802 42.1366 33.15 42.1195 33.0336 42.0612L33.0097 42.0474C32.9583 42.0166 32.8898 42.0269 32.8522 42.0715C32.6022 42.2773 32.3386 42.4694 32.0715 42.6478L31.9962 42.7096L31.9654 42.7679V42.8228C31.9756 42.8846 31.9037 42.9154 31.8524 42.9291C31.7976 42.9429 31.7565 42.9943 31.7531 43.0527L31.7634 43.1865C31.7736 43.2619 31.8421 43.3203 31.9209 43.3203L31.9962 43.3031L32.1982 43.2345L32.3078 43.2516L32.3215 43.2654V43.2757L32.3249 43.2894L32.3146 43.3477L32.2256 43.4746C32.1948 43.5227 32.1708 43.5879 32.2256 43.629C32.3215 43.7045 32.4584 43.6976 32.5474 43.6153L32.6502 43.4609C32.6741 43.4026 32.7221 43.3546 32.7837 43.3271C32.8967 43.2791 33.0234 43.2516 33.1466 43.2516H33.1535C33.2425 43.2482 33.3281 43.2722 33.4034 43.3168L33.4548 43.3751V43.3923L33.4582 43.43L33.3521 43.6702L33.2938 43.8589L33.2117 44.051L33.1363 44.1471L32.77 44.425C32.5783 44.6068 32.4105 44.8092 32.2701 45.0322L32.1742 45.2586V45.2655C32.1366 45.461 32.0989 45.6943 31.8661 45.564C31.647 45.4439 31.4347 45.3067 31.2327 45.1591C31.1573 45.1008 31.0923 45.0322 31.0409 44.9533C30.8389 44.6617 30.5924 44.919 30.4589 45.1351C30.2466 45.4645 30.0172 45.7801 29.7672 46.082L29.6714 46.2433C29.6371 46.3256 29.5892 46.4011 29.531 46.4663C29.4591 46.5589 29.4248 46.6721 29.4317 46.7888C29.4351 46.9877 29.3735 47.1833 29.2571 47.3411C29.1715 47.4337 29.1201 47.5538 29.1167 47.6807L29.1235 48.0101C29.1304 48.0924 29.1578 48.1645 29.2537 48.1576L29.3153 48.1405C29.4831 48.0753 29.6406 47.9861 29.7844 47.8763L29.8426 47.8214C29.8871 47.7768 29.8973 47.7082 29.8734 47.6499L29.8426 47.6087L29.8117 47.5813L29.7364 47.4818V47.4543V47.3411L29.7638 47.1936L29.8391 47.0426L30.0685 46.8574C30.1815 46.7647 30.2192 46.6104 30.1644 46.4766L30.1439 46.4011V46.3599L30.2192 46.1952L30.3733 45.9791C30.4452 45.859 30.5616 45.7732 30.6951 45.7355C30.8663 45.7149 31.0375 45.7698 31.1608 45.8899C31.2943 46.0614 31.3867 46.2638 31.4278 46.4766C31.4758 46.6515 31.5477 46.8196 31.6401 46.974C31.6812 47.0529 31.7634 47.1044 31.8558 47.1044L32.0167 47.0426L32.0407 47.0289L32.0647 47.0186C32.1126 47.0049 32.1674 47.0255 32.1914 47.0735L32.4002 47.2896C32.4858 47.3445 32.4139 47.4097 32.342 47.4097H32.1605L32.0065 47.4303C31.6504 47.5435 31.2772 47.6018 30.9005 47.6018L30.8286 47.6087L30.7259 47.6842L30.7088 47.7253L30.6711 47.8317C30.6369 47.9175 30.6369 48.0101 30.6677 48.0959C30.8184 48.6071 30.856 49.1457 30.7807 49.674C30.743 49.8627 30.7876 50.0617 30.9074 50.2126C30.9519 50.2675 31.0135 50.3053 31.082 50.3259L31.1573 50.367C31.2053 50.4219 31.2292 50.494 31.2292 50.566C31.2361 50.6689 31.2806 50.7684 31.3491 50.8439C31.4415 50.9605 31.5614 51.06 31.6915 51.1321L31.736 51.1492L31.7942 51.163C31.849 51.163 31.9003 51.1287 31.9243 51.0772C32.0065 50.9057 32.0441 50.7204 32.0373 50.5317C32.0373 50.4425 31.9688 50.367 31.8832 50.3499L31.8558 50.343L31.7702 50.3739H31.7599L31.712 50.3979H31.6607L31.6367 50.391L31.6127 50.3808L31.51 50.2504C31.4655 50.144 31.4586 50.0274 31.4895 49.9176L31.51 49.8215L31.5168 49.6672L31.4758 49.5128C31.4381 49.427 31.4244 49.3961 31.3525 49.3687L31.3285 49.3584L31.2395 49.3104L31.2258 49.2966L31.219 49.2212C31.2566 48.9741 31.2669 48.7203 31.2429 48.4698C31.2429 48.3875 31.2258 48.3017 31.2943 48.24C31.4655 48.0959 31.7565 48.2125 31.9346 48.2777C32.1708 48.36 32.4105 48.4218 32.657 48.463H32.6639C33.0644 48.5007 33.465 48.3909 33.7937 48.1542L33.8622 48.1405L34.2046 48.3909C34.4991 48.5865 34.8243 48.734 35.1633 48.83C35.6187 48.8747 36.0809 48.8712 36.5363 48.8163C36.6493 48.8232 36.7657 48.8472 36.8718 48.8884L36.9129 48.9501L36.8376 49.4476C36.8478 49.5402 36.8821 49.626 36.9334 49.7015L37.0464 49.9588L37.0944 50.048C37.358 50.3739 37.3649 50.8439 37.1081 51.1801C36.9369 51.3482 36.752 51.4992 36.5534 51.6364C36.3651 51.7771 36.1425 51.8628 35.9097 51.8869C35.7556 51.8937 35.6084 51.9589 35.4954 52.0652C35.3653 52.199 35.2181 52.3157 35.0572 52.4083C34.9887 52.4323 34.9373 52.4872 34.9168 52.5593C34.838 52.748 34.7798 52.9435 34.7422 53.1425C34.7182 53.2557 34.8004 53.2969 34.9031 53.2832C35.0743 53.2592 35.242 53.2146 35.403 53.1494C35.4714 53.1288 35.516 53.0636 35.516 52.995L35.4954 52.9126L35.4406 52.7686L35.4304 52.724V52.6896L35.4543 52.6416L35.5536 52.5524L35.7111 52.5112L35.8207 52.5387C36.0261 52.6107 36.2589 52.5284 36.3685 52.3397L36.4096 52.2711L36.5637 52.0961C36.9985 51.8148 37.4641 51.5849 37.9538 51.41L38.0496 51.3242L38.0394 51.1424C38.0222 50.9708 38.0188 50.7959 38.0291 50.6209C38.0325 50.5008 38.077 50.2847 38.2311 50.2813C38.2927 50.2915 38.3509 50.3259 38.3852 50.3773C38.5392 50.5763 38.7515 50.7273 38.9878 50.8096L39.2001 50.8919C39.385 50.9777 39.5151 51.1492 39.5493 51.3482C39.5698 51.458 39.5493 51.5747 39.4808 51.6639C39.313 51.8834 39.1556 52.1099 39.0117 52.3431C38.9364 52.4667 38.8371 52.5696 38.7207 52.6519C38.5392 52.7754 38.3646 52.9058 38.2003 53.0499C38.0668 53.1391 37.9538 53.2557 37.875 53.3964C37.7826 53.6331 37.7004 53.8733 37.6353 54.1203C37.5977 54.2609 37.6833 54.2952 37.8065 54.2678C37.9914 54.2198 38.1695 54.1477 38.3372 54.0551L38.4057 54.0002L38.44 53.8973L38.3646 53.7223C38.303 53.6571 38.2962 53.5576 38.3441 53.4822L38.4537 53.4067L38.8577 53.2935C39.0357 53.2694 39.2001 53.1871 39.3267 53.0567L39.3781 52.9538V52.9435L39.385 52.9126C39.5459 52.3603 39.9157 51.8937 40.4155 51.6124C40.4772 51.5781 40.5183 51.5129 40.5217 51.4409C40.5354 51.3722 40.5251 51.3002 40.4977 51.235L40.1211 50.6518C40.0081 50.5008 39.9396 50.3259 39.9122 50.1372C39.9122 49.9416 39.967 49.7461 40.056 49.5745L40.1485 49.4201C40.2135 49.2726 40.3436 49.2246 40.4429 49.0908C40.5457 48.9638 40.6415 48.8266 40.7237 48.686C40.8093 48.5007 40.8743 48.3086 40.9257 48.1096C40.9736 47.9586 40.8983 47.794 40.912 47.6361L40.9839 47.4783C41.049 47.3857 41.138 47.3137 41.2475 47.2759C41.3571 47.2485 41.4735 47.2553 41.5797 47.2965L42.1069 47.4783L42.1138 47.4921Z" fill="black"/>
<path d="M36.4542 25.9812H35.427V38.1432H36.4542V25.9812Z" fill="black"/>
<path d="M36.4542 57.9146H35.427V78.156H36.4542V57.9146Z" fill="black"/>
<path d="M35.9064 58.4634H35.8482C31.7875 58.4428 28.6615 55.6124 27.2748 50.6962C27.2577 50.6378 27.2474 50.6001 27.2405 50.5761L27.7199 50.4148V50.408H27.1995V37.6284H44.5038V38.1465C44.5038 38.2597 44.4593 49.468 44.5038 50.3805C44.538 51.1044 43.9697 53.8971 41.9427 56.0104C40.378 57.64 38.3477 58.4668 35.9098 58.4668L35.9064 58.4634ZM28.2301 50.3016C28.2437 50.3462 28.2574 50.384 28.2643 50.4183C29.0004 53.0291 30.9657 57.4102 35.8551 57.4376H35.9064C38.0566 57.4376 39.837 56.7171 41.1998 55.2968C42.987 53.4339 43.4972 50.9329 43.4766 50.4286C43.439 49.5949 43.4664 40.9151 43.4766 38.6611H28.2301V50.3051V50.3016Z" fill="black"/>
<path d="M59.1203 49.8694H44.1956V50.8986H59.1203V49.8694Z" fill="black"/>
<path d="M72.8707 18.4579C48.5919 11.6719 24.2788 11.6719 0 18.4579C0 14.0014 0 9.54484 0 5.09172C24.2788 -1.69431 48.5919 -1.69431 72.8707 5.09172C72.8707 9.54827 72.8707 14.0048 72.8707 18.4579Z" fill="black"/>
<path d="M0.482666 31.1445C0.482666 27.0482 0.482666 22.9484 0.482666 18.8521C24.4431 12.2479 48.4274 12.2479 72.3878 18.8521C72.3878 22.9484 72.3878 27.0482 72.3878 31.1445C48.4274 24.5403 24.4465 24.5403 0.482666 31.1445Z" fill="white"/>
<path d="M71.9051 19.2465C71.9051 22.986 71.9051 26.7256 71.9051 30.4651C48.2632 24.0427 24.6109 24.0427 0.968961 30.4651C0.968961 26.7256 0.968961 22.986 0.968961 19.2465C24.6109 12.8241 48.2666 12.8241 71.9051 19.2465ZM72.8707 18.4574C48.5919 11.6714 24.2788 11.6714 0 18.4574C0 22.914 0 27.3705 0 31.8237C24.2788 25.0376 48.5919 25.0376 72.8707 31.8237C72.8707 27.3671 72.8707 22.9106 72.8707 18.4574Z" fill="black"/>
<path d="M5.17692 13.2598C4.8585 13.3421 4.69757 13.3833 4.37915 13.4656C4.37915 11.5581 4.37915 10.6044 4.37915 8.69686C7.38533 7.91122 8.89869 7.56814 11.9323 6.97119V7.92494C9.22053 8.46014 7.8681 8.76205 5.17349 9.4482V10.5941C7.86467 9.91135 9.21711 9.60601 11.9323 9.07081V10.0383C9.22053 10.5735 7.8681 10.8754 5.17349 11.5615V13.2632L5.17692 13.2598Z" fill="white"/>
<path d="M20.29 10.3781C17.2359 10.7727 15.7123 11.0128 12.6753 11.5926V6.82386C15.7123 6.24406 17.2359 6.00048 20.29 5.60938V6.56312C17.5578 6.91306 16.1951 7.12577 13.4765 7.62666V8.5907C16.1951 8.08981 17.5578 7.8771 20.29 7.52717V8.48092C17.5578 8.83085 16.1951 9.04356 13.4765 9.54445V10.4913C16.1951 9.99045 17.5578 9.77774 20.29 9.42781V10.3816V10.3781Z" fill="white"/>
<path d="M28.7298 9.57856C25.662 9.76726 24.1315 9.90449 21.074 10.2784C21.074 8.37094 21.074 7.41719 21.074 5.50969C24.1315 5.13574 25.662 4.99508 28.7298 4.80981V5.76356C25.9873 5.93167 24.6177 6.05175 21.882 6.36738V7.33142C24.6177 7.01579 25.9873 6.89228 28.7298 6.72761V7.68136C25.9873 7.84946 24.6177 7.96954 21.882 8.28517V9.23206C24.6177 8.91643 25.9873 8.79292 28.7298 8.62824V9.582V9.57856Z" fill="white"/>
<path d="M37.1835 9.34532C34.1122 9.32817 32.5749 9.36591 29.5037 9.53401V4.77213C29.8255 4.75497 29.9864 4.74468 30.3049 4.73096V8.53909C33.0542 8.4053 34.4306 8.37785 37.18 8.39157V9.34532H37.1835Z" fill="white"/>
<path d="M47.5271 9.83252C47.1437 9.79821 46.9519 9.78105 46.5684 9.75018V5.9489C44.9695 5.82196 44.1683 5.76707 42.5693 5.69159V4.72412C46.1507 4.89909 47.938 5.05004 51.5057 5.47546V6.42921C49.917 6.23708 49.1192 6.15475 47.5271 6.01409V9.83252Z" fill="white"/>
<path d="M59.9009 11.5376C59.5859 11.4793 59.4284 11.4484 59.1134 11.3901V9.486C56.7029 9.04686 55.4943 8.85817 53.0736 8.53568V10.4397C52.7586 10.3986 52.6011 10.378 52.2861 10.3368V5.57837C52.6011 5.61954 52.7586 5.64012 53.0736 5.68129V7.58193C55.4943 7.90442 56.7029 8.09311 59.1134 8.53225V6.63161C59.4284 6.68993 59.5859 6.71738 59.9009 6.77913V11.5376Z" fill="white"/>
<path d="M68.2347 13.4006C65.2251 12.6218 63.7152 12.2822 60.6782 11.6887V6.91992C63.7118 7.51001 65.2251 7.85309 68.2347 8.63187V9.58562C65.5436 8.88918 64.1946 8.58041 61.4828 8.03492C61.4828 8.41916 61.4828 8.61471 61.4828 8.99896C64.1946 9.54445 65.547 9.85665 68.2347 10.5497V11.5034C65.5436 10.807 64.1946 10.4982 61.4828 9.95271V10.8996C64.1946 11.4451 65.547 11.7573 68.2347 12.4503V13.404V13.4006Z" fill="white"/>
<path d="M5.14946 24.3686V26.036C4.80022 26.1252 4.6256 26.1698 4.27637 26.2624C4.27637 24.1662 4.27637 23.1198 4.27637 21.0236C7.16271 20.2689 8.61444 19.9327 11.5247 19.3494C12.2369 19.2053 12.593 19.5553 12.593 20.3855V21.4182C12.593 22.2827 12.2403 22.7802 11.535 22.9208C8.97052 23.4355 7.69341 23.7236 5.14946 24.3721V24.3686ZM11.3707 20.4301C8.87465 20.9344 7.62836 21.2158 5.14946 21.847C5.14946 22.4371 5.14946 22.7322 5.14946 23.3222C7.63521 22.6841 8.8815 22.3994 11.3844 21.8882C11.5932 21.847 11.7028 21.6858 11.7028 21.4079V20.7663C11.7028 20.4953 11.5932 20.3821 11.3707 20.4267V20.4301Z" fill="black"/>
<path d="M14.4693 24.0324C13.7709 24.1559 13.425 23.7991 13.425 22.9585V20.2448C13.425 19.4077 13.7709 18.924 14.4591 18.8005C16.9654 18.3579 18.2253 18.1692 20.7453 17.8536C21.4575 17.7644 21.8136 18.1521 21.8136 19.0097V21.72C21.8136 22.5366 21.4678 22.9826 20.7796 23.0683C18.2493 23.3874 16.9859 23.5795 14.4693 24.0289V24.0324ZM20.9336 21.6034V19.3185C20.9336 19.0269 20.8172 18.8931 20.5844 18.924C18.2082 19.2225 17.0201 19.4009 14.6542 19.816C14.4214 19.8571 14.305 20.015 14.305 20.286V22.588C14.305 22.8728 14.4214 22.9929 14.6542 22.9517C17.0236 22.54 18.2116 22.3616 20.5913 22.0597C20.8207 22.0322 20.9336 21.8779 20.9336 21.6034Z" fill="black"/>
<path d="M31.0922 22.2245C30.6643 22.2417 30.4486 22.2519 30.0206 22.276C29.596 21.6241 29.3837 21.3016 28.9592 20.6532C26.7884 20.7802 25.703 20.8694 23.5357 21.0924V22.7734C23.1796 22.8112 23.005 22.8283 22.6489 22.8661C22.6523 20.7699 22.6558 19.7235 22.6592 17.6273C25.6037 17.3048 27.0829 17.1882 30.0377 17.0372C30.7327 17.0029 31.082 17.4009 31.082 18.2242V19.2981C31.082 20.1317 30.7259 20.5606 30.0171 20.5949C30.4486 21.2467 30.6643 21.5727 31.0922 22.2245ZM29.8186 18.0939C27.302 18.2242 26.0454 18.3237 23.5357 18.581V20.0528C26.0591 19.7955 27.3225 19.696 29.8528 19.5657C30.0856 19.5519 30.202 19.401 30.2055 19.1059V18.4987C30.2055 18.2174 30.0788 18.0836 29.8186 18.0973V18.0939Z" fill="black"/>
<path d="M40.3813 20.8863C40.3813 21.744 40.0218 22.1592 39.3062 22.1454C36.3582 22.0768 34.8825 22.0871 31.9346 22.1935C31.938 21.7783 31.9414 21.5691 31.9448 21.1539C34.8278 21.051 36.2692 21.0407 39.1487 21.1025C39.3815 21.1059 39.4979 20.9824 39.5048 20.7251V20.4678C39.5082 20.1899 39.3884 20.0492 39.1419 20.0458C36.6835 19.9944 35.4543 19.9978 32.9994 20.063C32.2907 20.0835 31.9346 19.7027 31.9346 18.9205V18.2241C31.9346 17.3767 32.2838 16.9375 32.9789 16.9204C35.9405 16.8346 37.4196 16.8381 40.3813 16.9273V17.9736C37.495 17.8844 36.0501 17.881 33.1637 17.9531C32.9309 17.9599 32.8145 18.104 32.8145 18.3819V18.5912C32.8145 18.8759 32.9275 19.0166 33.1569 19.0097C35.6153 18.9445 36.8444 18.9445 39.3028 18.9994C40.0218 19.0166 40.3779 19.442 40.3779 20.2688V20.8829L40.3813 20.8863Z" fill="black"/>
<path d="M49.6703 22.8077C46.7189 22.4989 45.2398 22.3857 42.2816 22.2485C41.59 22.2176 41.2441 21.7784 41.2441 20.9311V18.2105C41.2441 17.3837 41.59 16.9823 42.2816 17.0131C45.2398 17.1504 46.7189 17.2636 49.6703 17.5723V18.6119C46.7977 18.31 45.3562 18.2002 42.4733 18.0629C42.2405 18.0526 42.1241 18.1796 42.1241 18.4506V20.7767C42.1241 21.0614 42.2371 21.2089 42.4596 21.2192C45.346 21.3565 46.7908 21.4662 49.6703 21.7716V22.8111V22.8077Z" fill="black"/>
<path d="M58.9183 24.1252C58.5725 24.0634 58.3979 24.0325 58.0521 23.9708V21.8746C55.3986 21.4149 54.0667 21.2193 51.3994 20.9037V22.9999C51.0536 22.9587 50.879 22.9381 50.5332 22.9004V17.665C50.879 17.7028 51.0536 17.7234 51.3994 17.7645V19.8573C54.0667 20.1764 55.3986 20.3685 58.0521 20.8282C58.0521 19.9911 58.0521 19.5725 58.0521 18.7354C58.3979 18.7972 58.5725 18.8246 58.9183 18.8898V24.1252Z" fill="black"/>
<path d="M68.091 26.1287C64.7801 25.2779 63.1161 24.9074 59.7744 24.283V19.0374C63.1161 19.6618 64.7801 20.0323 68.091 20.8831V21.9295C65.1328 21.1679 63.6434 20.8316 60.6578 20.2518V21.3119C63.6434 21.8917 65.1294 22.228 68.091 22.9896C68.091 23.4081 68.091 23.6174 68.091 24.036C65.1328 23.2743 63.6434 22.9381 60.6578 22.3583V23.4013C63.6434 23.9811 65.1294 24.3173 68.091 25.0789V26.1253V26.1287Z" fill="black"/>
</g>
<defs>
<clipPath id="clip0_408_1149">
<rect width="72.8707" height="79" fill="white"/>
</clipPath>
</defs>
</svg>
