<svg width="25" height="25" viewBox="0 0 25 25" fill="none" xmlns="http://www.w3.org/2000/svg">
<path d="M24 12.5C24 18.8513 18.8513 24 12.5 24C6.14873 24 1 18.8513 1 12.5C1 6.14873 6.14873 1 12.5 1C18.8513 1 24 6.14873 24 12.5Z" stroke="#33B888"/>
<path d="M6.11108 12.5C6.11108 8.97149 8.97149 6.11108 12.5 6.11108" stroke="#33B888" stroke-linecap="round"/>
<path d="M13.7777 12.5001C13.7777 13.2058 13.2056 13.7778 12.4999 13.7778C11.7942 13.7778 11.2221 13.2058 11.2221 12.5001C11.2221 11.7944 11.7942 11.2223 12.4999 11.2223C13.2056 11.2223 13.7777 11.7944 13.7777 12.5001Z" stroke="#33B888"/>
<path d="M12.5 12.5L17.6111 7.38892" stroke="#33B888" stroke-linecap="round" stroke-linejoin="round"/>
</svg>
