<svg width="25" height="25" viewBox="0 0 25 25" fill="none" xmlns="http://www.w3.org/2000/svg">
<path d="M10.2641 2.49059C9.73584 3.75842 8.25449 4.33117 7.00743 3.7556C4.94405 2.80328 2.80328 4.94405 3.7556 7.00743C4.33117 8.25449 3.75842 9.73584 2.49059 10.2641C0.503136 11.0922 0.503136 13.9078 2.49059 14.7359C3.75842 15.2641 4.33117 16.7456 3.7556 17.9925C2.80328 20.0559 4.94405 22.1967 7.00743 21.2443C8.25449 20.6688 9.73584 21.2415 10.2641 22.5093C11.0922 24.4969 13.9078 24.4969 14.7359 22.5093C15.2641 21.2415 16.7456 20.6688 17.9925 21.2443C20.0559 22.1967 22.1967 20.0559 21.2443 17.9925C20.6688 16.7456 21.2415 15.2641 22.5093 14.7359C24.4969 13.9078 24.4969 11.0922 22.5093 10.2641C21.2415 9.73584 20.6688 8.25449 21.2443 7.00743C22.1967 4.94405 20.0559 2.80328 17.9925 3.7556C16.7456 4.33117 15.2641 3.75842 14.7359 2.49059C13.9078 0.503136 11.0922 0.503136 10.2641 2.49059Z" stroke="#3378B8" stroke-linecap="round" stroke-linejoin="round"/>
<path d="M16.3435 12.5C16.3435 14.623 14.6226 16.3439 12.4996 16.3439C10.3767 16.3439 8.65576 14.623 8.65576 12.5C8.65576 10.377 10.3767 8.65613 12.4996 8.65613C14.6226 8.65613 16.3435 10.377 16.3435 12.5Z" stroke="#3378B8"/>
</svg>
