<svg width="33" height="24" viewBox="0 0 33 24" fill="none" xmlns="http://www.w3.org/2000/svg">
<path d="M22.8615 2.9994C23.33 2.82572 23.8366 2.73083 24.3655 2.73083C26.7552 2.73083 28.6924 4.66807 28.6924 7.05775C28.6924 9.44742 26.7552 11.3847 24.3655 11.3847C23.8366 11.3847 23.33 11.2898 22.8615 11.1161" stroke="#3175DA" stroke-linecap="round"/>
<path d="M1 23.5C2.1966 19.5068 5.27496 18.3077 12.25 18.3077C19.225 18.3077 22.3033 19.5068 23.5 23.5" stroke="#3175DA" stroke-linecap="round"/>
<path d="M25.231 16.5769C29.39 16.7413 31.3392 17.6817 32.154 20.0384" stroke="#3175DA" stroke-linecap="round"/>
<path d="M18.3077 7.05769C18.3077 10.4033 15.5956 13.1154 12.25 13.1154C8.90443 13.1154 6.19232 10.4033 6.19232 7.05769C6.19232 3.71211 8.90443 1 12.25 1C15.5956 1 18.3077 3.71211 18.3077 7.05769Z" stroke="#3175DA"/>
</svg>
