<svg width="86" height="20" viewBox="0 0 86 20" fill="none" xmlns="http://www.w3.org/2000/svg">
<path fill-rule="evenodd" clip-rule="evenodd" d="M0.98505 17.05C6.92997 10.3211 15.2892 6.53917 24.4026 4.8321C38.1656 2.25445 53.6514 4.40605 65.2657 8.39111C72.5655 10.8949 76.667 15.029 83.2226 19.0297C83.4882 19.1916 83.8347 19.1078 83.9966 18.8423C84.1585 18.5781 84.0747 18.2302 83.8092 18.0697C77.1769 14.0222 73.0157 9.85958 65.6307 7.32596C53.8545 3.28552 38.1514 1.11261 24.1952 3.72577C14.8305 5.4797 6.25113 9.38947 0.141465 16.3044C-0.0644631 16.5373 -0.0431824 16.8923 0.189729 17.0982C0.42264 17.3042 0.779122 17.2829 0.98505 17.05Z" fill="#797676"/>
<path fill-rule="evenodd" clip-rule="evenodd" d="M85.3947 18.672C85.3719 18.6564 85.2185 18.5556 85.0992 18.4576C84.6022 18.0543 83.7969 17.2689 82.8397 16.2179C79.6329 12.6888 74.7333 6.17717 74.2419 0.810264C74.2135 0.500663 73.9394 0.273422 73.6298 0.301826C73.3202 0.330228 73.0915 0.602947 73.1199 0.91255C73.6312 6.49674 78.67 13.3037 82.0075 16.9749C82.4548 17.4663 82.871 17.9037 83.2416 18.2729C81.6752 17.9548 80.1201 17.597 78.5649 17.2206C74.0885 16.1356 69.9912 16.1242 65.4438 17.0488C65.1399 17.1098 64.9425 17.4081 65.005 17.712C65.066 18.0159 65.3643 18.2133 65.6682 18.1508C70.0452 17.2618 73.9905 17.2703 78.2994 18.3141C80.3316 18.8055 82.3668 19.2657 84.4218 19.6505C84.6263 19.6889 85.1589 19.7826 85.2356 19.784C85.673 19.7925 85.7809 19.4375 85.8008 19.358C85.8108 19.3196 85.9059 18.8367 85.3947 18.672ZM85.0112 19.7301C85.0254 19.7343 85.0396 19.74 85.0552 19.7443C85.0424 19.7415 85.0282 19.7358 85.0112 19.7301Z" fill="#797676"/>
</svg>
