<svg width="93" height="53" viewBox="0 0 93 53" fill="none" xmlns="http://www.w3.org/2000/svg">
<path fill-rule="evenodd" clip-rule="evenodd" d="M1.97878 25.1122C7.99006 31.5787 17.8161 35.4561 28.6198 36.9631C44.7622 39.2128 63.078 36.1808 73.9783 28.7649C74.201 28.6093 74.2589 28.3019 74.1078 28.0805C73.9535 27.8532 73.6507 27.7965 73.4235 27.9509C62.6914 35.2505 44.6508 38.2045 28.7547 35.9851C18.1957 34.5143 8.57525 30.764 2.70187 24.4401C2.51613 24.2387 2.20571 24.2289 2.00429 24.4146C1.80866 24.597 1.79304 24.9108 1.97878 25.1122Z" fill="#797676"/>
<path fill-rule="evenodd" clip-rule="evenodd" d="M88.8806 23.9803C82.3469 27.9531 76.2083 30.7796 71.3125 37.2753C71.1506 37.4961 71.1901 37.8051 71.4109 37.967C71.6259 38.1322 71.9361 38.0882 72.0968 37.8719C77.485 30.7254 84.4176 28.1118 91.6919 23.3834C92.0837 23.1263 91.9724 22.7932 91.9393 22.7159C91.8919 22.6004 91.7802 22.4335 91.5123 22.4107C91.4597 22.4063 91.3552 22.4126 91.2103 22.4423C90.9342 22.5053 90.3834 22.6805 90.1291 22.7347C89.3942 22.8851 88.6595 23.016 87.9246 23.1664C85.8232 23.5964 83.7234 24.0024 81.5964 24.2543C73.6406 25.2094 67.1413 26.0411 60.499 21.0717C60.2794 20.9052 59.9737 20.9506 59.8072 21.1701C59.6466 21.3863 59.6907 21.6966 59.9069 21.8572C66.7767 27.0001 73.4871 26.22 81.7151 25.2352C83.8686 24.9757 85.9983 24.5679 88.1203 24.1337C88.3746 24.0795 88.6276 24.0299 88.8806 23.9803Z" fill="#797676"/>
</svg>
