<svg width="59" height="52" viewBox="0 0 59 52" fill="none" xmlns="http://www.w3.org/2000/svg">
<path d="M6.63768 6.30608C8.45773 3.70602 9.36774 2.40599 10.7179 1.70298C12.0681 1 13.655 1 16.8288 1H29.0118H41.1948C44.3685 1 45.9555 1 47.3056 1.70298C48.6559 2.40599 49.5659 3.70602 51.3859 6.30608L53.2432 8.95924C55.8023 12.6155 57.0821 14.4437 57.0215 16.5047C56.9608 18.5656 55.5756 20.3151 52.8053 23.8145L36.398 44.5397C34.1174 47.4204 32.977 48.861 31.6466 49.483C29.9768 50.2639 28.0468 50.2639 26.377 49.483C25.0466 48.861 23.9061 47.4204 21.6256 44.5397L5.21819 23.8145C2.44792 20.3151 1.0628 18.5656 1.00206 16.5047C0.941356 14.4437 2.22105 12.6155 4.78046 8.95924L6.63768 6.30608Z" stroke="#33B888" stroke-width="2" stroke-linejoin="round"/>
<path d="M19.6821 11.8844L18.1271 14.2169C17.2049 15.6003 17.3023 17.4256 18.3668 18.7029L24.3471 25.8793" stroke="#33B888" stroke-width="2" stroke-linecap="round" stroke-linejoin="round"/>
</svg>
